<svg xmlns="http://www.w3.org/2000/svg" width="289" height="83" viewBox="0 0 289 83"><g fill="none" fill-rule="evenodd"><path fill="#929292" d="M270.88 56.678c6.788 0 13.181-5.393 13.181-13.35s-6.393-13.35-13.181-13.35c-6.788 0-13.181 5.393-13.181 13.35s6.393 13.35 13.181 13.35m0-30.678c11.298 0 17.648 9.018 17.648 17.328 0 8.31-6.35 17.328-17.648 17.328s-17.648-9.017-17.648-17.328c0-8.31 6.35-17.328 17.648-17.328m-39.488 17.195c.57.044 1.183.044 3.679.044 6.437 0 8.67-2.829 8.67-6.498 0-3.934-2.671-6.498-7.05-6.498h-5.3v12.952zm0 2.608v14.322h-4.203V26.53h9.59c6.393 0 11.166 3.713 11.166 10.167 0 6.012-4.685 9.725-10.116 10.034l12.963 13.394h-5.911l-13.49-14.322zm-22.072-.84c5.035 0 7.925-2.475 7.925-7.338 0-4.862-2.89-7.382-7.925-7.382h-4.117v14.72h4.117zM201 26.53h9.195c7.05 0 11.255 5.481 11.255 11.095 0 5.614-4.205 11.052-11.255 11.052h-4.992v11.448H201V26.53z"/><path fill="#444" d="M153.922 31.319c0-5.463 3.724-8.068 8.886-8.319v4.51h-.894c-2.283 0-3.524 1.855-3.524 4.16v3.608h4.22v3.959h-4.22v22.15h-4.468v-22.15H150v-3.959h3.922v-3.959zm-15.663 14.405c0-4.51-2.581-6.515-5.659-6.515-3.724 0-6.503 2.355-6.503 6.716V61.71h-4.468V45.724c0-4.51-2.581-6.515-5.659-6.515-3.723 0-6.503 2.355-6.503 6.716V61.71H105V35.601h4.467v3.107h.099c1.192-2.656 4.418-3.708 7.149-3.708 2.63 0 5.51.701 7.645 4.51 1.588-3.308 5.013-4.51 8.438-4.51 5.561 0 9.929 3.357 9.929 10.223V61.71h-4.468V45.724zm-54.197 2.205c-5.461 0-7.297 2.656-7.297 5.212 0 2.556 1.836 5.212 7.297 5.212 5.461 0 7.298-2.656 7.298-5.212 0-2.556-1.837-5.212-7.298-5.212zm7.149-3.708c0-4.31-4.269-5.262-7.744-5.262-2.432 0-4.716.601-7.149 1.804l-1.936-3.758C78.304 35.351 81.381 35 83.715 35c6.206 0 11.964 2.656 11.964 8.87v17.84h-4.17v-2.806c-2.284 2.405-4.816 3.408-8.241 3.408C76.964 62.312 72 58.754 72 52.94c0-4.76 4.02-8.97 11.219-8.97 2.73 0 5.609.802 7.992 2.957v-2.706zM63.535 24c1.738-.008 3.133 1.389 3.141 3.143.008 1.754-1.375 3.163-3.113 3.171-1.737.008-3.134-1.389-3.142-3.143-.007-1.754 1.376-3.163 3.114-3.171zm-2.183 11.436l4.468-.02.132 29.462c0 6.801-4.389 9.096-9.316 9.113h-1.617L55 69.742c1.201.04 1.621.04 1.651.04 4.376-.033 4.835-2.445 4.835-4.679l-.134-29.667z"/><path fill="#778EB1" d="M34.63 24c-5.52 0-8.782 2.325-10.268 7.314l-3.845 11.881c-1.41 3.905-3.678 5.514-7.82 5.514H3.193A2.194 2.194 0 0 0 1 50.903v6.06c0 1.16.94 2.1 2.099 2.1h38.567c1.21 0 2.19-.98 2.19-2.19V26.112A2.112 2.112 0 0 0 41.746 24H34.63z"/><path fill="#778EB1" d="M3.346 18A2.346 2.346 0 0 0 1 20.346v16.22a2.287 2.287 0 0 0 2.286 2.287h8.175c3.742 0 8.88-.769 10.29-7.414.002 0 1.402-6.654 2.233-10.598A2.356 2.356 0 0 0 21.675 18H3.345z"/><path fill="#BFBFBF" d="M182 1h1v80h-1z"/></g></svg>