<svg xmlns="http://www.w3.org/2000/svg" width="164" height="57" viewBox="0 0 164 57"><g fill="none" fill-rule="evenodd"><path fill="#444" d="M153.922 13.319c0-5.463 3.724-8.068 8.886-8.319v4.51h-.894c-2.283 0-3.524 1.855-3.524 4.16v3.608h4.22v3.959h-4.22v22.15h-4.468v-22.15H150v-3.959h3.922v-3.959zm-15.663 14.405c0-4.51-2.581-6.515-5.659-6.515-3.724 0-6.503 2.355-6.503 6.716V43.71h-4.468V27.724c0-4.51-2.581-6.515-5.659-6.515-3.723 0-6.503 2.355-6.503 6.716V43.71H105V17.601h4.467v3.107h.099c1.192-2.656 4.418-3.708 7.149-3.708 2.63 0 5.51.701 7.645 4.51 1.588-3.308 5.013-4.51 8.438-4.51 5.561 0 9.929 3.357 9.929 10.223V43.71h-4.468V27.724zm-54.197 2.205c-5.461 0-7.297 2.656-7.297 5.212 0 2.556 1.836 5.212 7.297 5.212 5.461 0 7.298-2.656 7.298-5.212 0-2.556-1.837-5.212-7.298-5.212zm7.149-3.708c0-4.31-4.269-5.262-7.744-5.262-2.432 0-4.716.601-7.149 1.804l-1.936-3.758C78.304 17.351 81.381 17 83.715 17c6.206 0 11.964 2.656 11.964 8.87v17.84h-4.17v-2.806c-2.284 2.405-4.816 3.408-8.241 3.408C76.964 44.312 72 40.754 72 34.94c0-4.76 4.02-8.97 11.219-8.97 2.73 0 5.609.802 7.992 2.957v-2.706zM63.535 6c1.738-.008 3.133 1.389 3.141 3.143.008 1.754-1.375 3.163-3.113 3.171-1.737.008-3.134-1.389-3.142-3.143-.007-1.754 1.376-3.163 3.114-3.171zm-2.183 11.436l4.468-.02.132 29.462c0 6.801-4.389 9.096-9.316 9.113h-1.617L55 51.742c1.201.04 1.621.04 1.651.04 4.376-.033 4.835-2.445 4.835-4.679l-.134-29.667z"/><path fill="#778EB1" d="M34.63 6.963c-5.52 0-8.782 2.325-10.268 7.314l-3.845 11.881c-1.41 3.906-3.678 5.514-7.82 5.514H3.193A2.194 2.194 0 0 0 1 33.867v6.06c0 1.16.94 2.099 2.099 2.099h38.567c1.21 0 2.19-.98 2.19-2.19V9.076a2.112 2.112 0 0 0-2.111-2.113H34.63z"/><path fill="#778EB1" d="M3.346 0A2.346 2.346 0 0 0 1 2.346v16.22a2.287 2.287 0 0 0 2.286 2.287h8.175c3.742 0 8.88-.769 10.29-7.414.002 0 1.402-6.654 2.233-10.598A2.356 2.356 0 0 0 21.675 0H3.345z"/></g></svg>