<svg xmlns="http://www.w3.org/2000/svg" preserveAspectRatio="xMidYMid" width="24" height="24" viewBox="0 0 24 24"><defs><style>.cls-1{fill:#000;fill-rule:evenodd}</style></defs><path d="M22.267 24H1.733A1.735 1.735 0 0 1 0 22.268v-1.467c0-.365.2-.702.521-.878l6.677-3.642-3.553-1.347a.999.999 0 0 1-.211-1.76c1.554-1.066 2.343-5.496 2.476-8.038.002-.042.007-.083.013-.123C6.436 2.108 8.992 0 12 0s5.564 2.108 6.077 5.013c.006.04.011.081.013.123.133 2.542.922 6.972 2.476 8.038a1 1 0 0 1-.21 1.76l-3.477 1.323 6.607 3.67a1 1 0 0 1 .514.874v1.467c0 .955-.778 1.732-1.733 1.732zM22 21.389l-6.774-3.762-.002-.002c-.31-.166-1.208-.717-1.208-1.556 0-.689.593-1.259 1.459-1.418l2.788-1.061c-1.771-2.642-2.117-7.416-2.166-8.285C15.73 3.386 14.016 2 12 2 9.984 2 8.27 3.386 7.903 5.305c-.049.869-.395 5.641-2.165 8.283l2.806 1.064c.629.124 1.456.555 1.456 1.347 0 .691-.358 1.225-1.096 1.629h-.001l-.002.002L2 21.395V22h20v-.611z" class="cls-1"/></svg>