<svg xmlns="http://www.w3.org/2000/svg" preserveAspectRatio="xMidYMid" width="32.031" height="29.969" viewBox="0 0 32.031 29.969"><defs><style>.cls-1{fill:#000;fill-rule:evenodd}</style></defs><path d="M31.734 7.677l-5.983 5.981a.993.993 0 0 1-1.41 0 .998.998 0 0 1 0-1.41l4.281-4.279h-7.689c-6.048 0-10.969 4.919-10.969 10.966a.997.997 0 1 1-1.994 0c0-7.146 5.815-12.96 12.963-12.96h7.689l-4.281-4.28a.998.998 0 0 1 1.41-1.41l5.983 5.982a.996.996 0 0 1 0 1.41zm-22.767.292h-6.98V27.97h25.988V16.007a.997.997 0 1 1 1.994 0V27.97c0 1.1-.895 1.994-1.994 1.994H1.987A1.996 1.996 0 0 1-.007 27.97V7.969c0-1.1.895-1.994 1.994-1.994h6.98a.997.997 0 1 1 0 1.994z" class="cls-1"/></svg>