<svg xmlns="http://www.w3.org/2000/svg" preserveAspectRatio="xMidYMid" width="32" height="32" viewBox="0 0 32 32"><path d="M16 32C7.178 32 0 24.823 0 16 0 7.178 7.178 0 16 0s16 7.178 16 16c0 8.823-7.178 16-16 16zm0-30C8.28 2 2 8.28 2 16c0 7.719 6.28 14 14 14s14-6.281 14-14c0-7.72-6.28-14-14-14zm5.707 19.707a.997.997 0 0 1-1.414 0L16 17.414l-4.293 4.293a.997.997 0 0 1-1.414 0 .999.999 0 0 1 0-1.414L14.586 16l-4.293-4.293a.998.998 0 0 1 0-1.413.997.997 0 0 1 1.414 0L16 14.586l4.293-4.292a.997.997 0 0 1 1.414 0 .998.998 0 0 1 0 1.413L17.414 16l4.293 4.293a.999.999 0 0 1 0 1.414z"/></svg>