<svg width="56" height="56" viewBox="0 0 56 56" xmlns="http://www.w3.org/2000/svg"><title>Slice</title><g fill="#FFF" fill-rule="evenodd"><path d="M39.63 13c-5.52 0-8.782 2.325-10.268 7.314l-3.845 11.881c-1.41 3.905-3.678 5.514-7.82 5.514H8.193A2.194 2.194 0 0 0 6 39.903v6.06c0 1.16.94 2.1 2.099 2.1h38.567c1.21 0 2.19-.98 2.19-2.19V15.112A2.112 2.112 0 0 0 46.746 13H39.63z"/><path d="M8.346 7A2.346 2.346 0 0 0 6 9.346v16.22a2.287 2.287 0 0 0 2.286 2.287h8.175c3.742 0 8.88-.769 10.29-7.414.002 0 1.402-6.654 2.233-10.598A2.356 2.356 0 0 0 26.675 7H8.345z"/></g></svg>