<svg xmlns="http://www.w3.org/2000/svg" preserveAspectRatio="xMidYMid" width="32" height="32" viewBox="0 0 32 32"><path d="M27.321 27.314A15.919 15.919 0 0 1 15.996 32c-4.278 0-8.3-1.664-11.325-4.686-6.244-6.239-6.244-16.389 0-22.628A15.919 15.919 0 0 1 15.996 0c4.278 0 8.3 1.664 11.325 4.686A15.884 15.884 0 0 1 32.013 16c0 4.274-1.666 8.292-4.692 11.314zM25.905 6.1A13.926 13.926 0 0 0 15.996 2a13.93 13.93 0 0 0-9.909 4.1c-5.464 5.459-5.464 14.341 0 19.8a13.93 13.93 0 0 0 9.909 4.1c3.744 0 7.263-1.456 9.909-4.1a13.901 13.901 0 0 0 4.106-9.9 13.9 13.9 0 0 0-4.106-9.9zM18.083 25h-4.051a1.006 1.006 0 0 1-1.013-1c0-.552.454-1 1.013-1h1.013v-7.999h-1.013a1.007 1.007 0 0 1-1.013-1c0-.553.454-1 1.013-1h2.025c.559 0 1.013.447 1.013 1V23h1.013c.559 0 1.012.448 1.012 1 0 .553-.453 1-1.012 1zm-2.026-13.999c-1.117 0-2.025-.898-2.025-2 0-1.103.908-2 2.025-2s2.026.897 2.026 2c0 1.102-.909 2-2.026 2z"/></svg>