<svg xmlns="http://www.w3.org/2000/svg" preserveAspectRatio="xMidYMid" width="36" height="35.91" viewBox="0 0 24 23.94"><path d="M12 23.932c-6.617 0-12-5.371-12-11.973S5.383-.014 12-.014s12 5.371 12 11.973-5.383 11.973-12 11.973zm8.627-6.984h-2.471a15.52 15.52 0 0 1-2.182 4.162c1.965-.853 3.582-2.329 4.653-4.162zm-4.618 0H13v4.523a13.688 13.688 0 0 0 3.009-4.523zM17 11.959a13.12 13.12 0 0 0-.359-2.993H13v5.986h3.64c.229-.974.36-1.975.36-2.993zm-6 4.989H7.989A13.69 13.69 0 0 0 11 21.475v-4.527zm-2.979 4.16a15.543 15.543 0 0 1-2.179-4.16H3.373c1.07 1.831 2.686 3.307 4.648 4.16zM2 11.959c0 1.043.165 2.048.464 2.993h2.844A15.291 15.291 0 0 1 5 11.961c0-1.014.113-2.015.309-2.995H2.464A9.91 9.91 0 0 0 2 11.959zM3.373 6.97h2.471a15.52 15.52 0 0 1 2.182-4.162c-1.965.853-3.582 2.33-4.653 4.162zM11 2.45a13.681 13.681 0 0 0-3.009 4.52H11V2.45zM7.36 8.966c-.229.975-.36 1.976-.36 2.995 0 1.017.131 2.018.359 2.991H11V8.966H7.36zM13 6.97h3.01A13.71 13.71 0 0 0 13 2.446V6.97zm2.977-4.161a15.552 15.552 0 0 1 2.18 4.161h2.47c-1.07-1.831-2.687-3.308-4.65-4.161zm5.559 6.157h-2.845c.196.979.309 1.979.309 2.993 0 1.014-.113 2.014-.309 2.993h2.845a9.905 9.905 0 0 0 0-5.986z"/></svg>