<svg xmlns="http://www.w3.org/2000/svg" preserveAspectRatio="xMidYMid" width="45" height="32" viewBox="0 0 45 32"><path d="M45 26.179v.844a1 1 0 0 1-1 .998H30.917a1 1 0 0 1-1-.998 1 1 0 0 1 1-.998h12.082c-.098-4.803-4.728-8.983-9.999-8.983-2.222 0-4.464.781-6.314 2.198a.998.998 0 1 1-1.218-1.583 12.764 12.764 0 0 1 4.608-2.239C27.108 14.25 25 11.366 25 7.993c0-4.401 3.589-7.984 8-7.984s8 3.583 8 7.984c0 3.377-2.114 6.264-5.088 7.43C41.002 16.701 45 21.174 45 26.179zM39 7.993c0-3.302-2.691-5.988-6-5.988s-6 2.686-6 5.988c0 3.303 2.691 5.989 6 5.989s6-2.686 6-5.989zm-21.781 9.443C23.242 18.865 28 24.126 28 30.017v.999a1 1 0 0 1-1 .997H1a1 1 0 0 1-1-.997v-.999c0-5.891 4.758-11.152 10.78-12.581C7.406 16.139 5 12.877 5 9.058 5 4.105 9.038.075 14 .075s9 4.03 9 8.983c0 3.819-2.406 7.081-5.781 8.378zM2 30.017h24c0-5.848-5.607-10.978-12-10.978S2 24.169 2 30.017zM14 2.072c-3.86 0-7 3.134-7 6.986s3.14 6.986 7 6.986 7-3.134 7-6.986-3.14-6.986-7-6.986z"/></svg>