<svg xmlns="http://www.w3.org/2000/svg" viewBox="0 0 362 113"><path fill="#fff" d="M134.4 90.12c.51 1.05 1.22 1.89 2.11 2.52.9.63 1.96 1.08 3.18 1.35s2.53.4 3.93.4c.8 0 1.66-.11 2.6-.34.94-.23 1.82-.59 2.63-1.09.81-.5 1.49-1.14 2.03-1.92.54-.78.81-1.73.81-2.84 0-.85-.19-1.6-.58-2.22-.38-.63-.88-1.15-1.5-1.58-.61-.43-1.29-.78-2.03-1.05-.74-.27-1.47-.49-2.18-.66l-6.79-1.67c-.88-.23-1.75-.51-2.59-.85-.84-.34-1.57-.8-2.2-1.37-.63-.57-1.13-1.27-1.52-2.09-.38-.83-.58-1.84-.58-3.03 0-.74.14-1.61.43-2.61.28-1 .82-1.94 1.6-2.82.78-.88 1.86-1.63 3.23-2.24 1.37-.61 3.12-.92 5.25-.92 1.51 0 2.95.2 4.32.6 1.37.4 2.56 1 3.59 1.79 1.03.8 1.84 1.79 2.46 2.97.61 1.18.92 2.56.92 4.12h-2.9c-.06-1.17-.32-2.18-.79-3.05-.47-.87-1.08-1.6-1.84-2.18a8.126 8.126 0 0 0-2.61-1.32c-.98-.3-2.02-.45-3.1-.45-1 0-1.96.11-2.88.32-.93.21-1.74.55-2.43 1.02-.7.47-1.26 1.09-1.69 1.86-.43.77-.64 1.72-.64 2.86 0 .71.12 1.33.36 1.86s.58.98 1 1.35c.43.37.92.67 1.47.9.55.23 1.15.41 1.77.56l7.43 1.84c1.08.28 2.1.63 3.05 1.05.95.41 1.79.93 2.52 1.54s1.3 1.36 1.71 2.24c.41.88.62 1.95.62 3.21 0 .34-.04.8-.11 1.37-.07.57-.24 1.18-.51 1.82-.27.64-.66 1.29-1.15 1.94-.5.66-1.18 1.25-2.05 1.77-.87.53-1.94.95-3.23 1.28-1.28.33-2.82.49-4.61.49-1.79 0-3.46-.21-5-.62-1.54-.41-2.85-1.05-3.93-1.9-1.08-.85-1.92-1.95-2.5-3.29-.58-1.34-.83-2.95-.75-4.83h2.91c0 1.55.24 2.86.76 3.91m25.29-24.39v18.88c0 1.77.2 3.27.6 4.51.4 1.24.98 2.25 1.75 3.03.77.78 1.71 1.35 2.82 1.71 1.11.36 2.36.53 3.76.53 1.42 0 2.69-.18 3.8-.53 1.11-.36 2.05-.93 2.82-1.71.77-.78 1.35-1.79 1.75-3.03.4-1.24.6-2.74.6-4.51V65.73h2.91v19.52c0 1.57-.22 3.06-.66 4.46a9.883 9.883 0 0 1-2.09 3.7c-.95 1.05-2.18 1.89-3.67 2.5-1.49.61-3.31.92-5.45.92-2.11 0-3.91-.31-5.4-.92-1.5-.61-2.72-1.45-3.67-2.5-.96-1.05-1.65-2.29-2.09-3.7-.44-1.41-.66-2.9-.66-4.46V65.73h2.88m24.73 0h2.91v30.5h-2.91zm28.35 0v2.47h-10.64v28.03h-2.9V68.2h-10.6v-2.47h24.14m22.37 0v2.47h-18.16v11.03h17.01v2.47h-17.01v12.05h18.37v2.48h-21.27v-30.5h21.06m-92.33-43.38c-1.86 0-3.41.42-4.67 1.27-1.26.85-2.28 1.94-3.07 3.27-.79 1.34-1.35 2.81-1.68 4.42a23.82 23.82 0 0 0-.49 4.79c0 1.53.16 3.08.49 4.67.33 1.58.86 3.02 1.6 4.3a9.192 9.192 0 0 0 2.99 3.15c1.25.82 2.78 1.23 4.58 1.23 2.78 0 4.93-.78 6.43-2.33 1.5-1.56 2.44-3.64 2.82-6.26h11.22c-.76 5.62-2.95 9.91-6.55 12.85-3.6 2.95-8.22 4.42-13.84 4.42-3.17 0-6.07-.53-8.72-1.6-2.65-1.06-4.9-2.55-6.76-4.46-1.86-1.91-3.3-4.19-4.34-6.84-1.04-2.65-1.56-5.55-1.56-8.72 0-3.28.48-6.32 1.43-9.13.96-2.81 2.36-5.24 4.22-7.29 1.86-2.05 4.12-3.64 6.8-4.79 2.67-1.15 5.73-1.72 9.17-1.72 2.51 0 4.93.33 7.25.98 2.32.65 4.39 1.65 6.22 2.99 1.83 1.34 3.32 3 4.46 5 1.14 1.99 1.8 4.35 1.96 7.08H151.4c-.76-4.85-3.63-7.28-8.59-7.28m24.89-1.39c1.2-1.8 2.73-3.25 4.58-4.34 1.85-1.09 3.94-1.87 6.26-2.33 2.32-.46 4.65-.7 7-.7 2.13 0 4.29.15 6.47.45 2.18.3 4.17.89 5.98 1.76 1.8.87 3.28 2.09 4.42 3.64 1.15 1.56 1.72 3.62 1.72 6.18v22.03c0 1.91.11 3.74.33 5.49.22 1.75.6 3.06 1.15 3.93h-11.79c-.22-.65-.4-1.32-.53-2.01-.14-.68-.23-1.38-.29-2.09-1.86 1.91-4.04 3.25-6.55 4.01-2.51.76-5.08 1.15-7.7 1.15-2.02 0-3.9-.25-5.65-.74-1.75-.49-3.28-1.26-4.59-2.29-1.31-1.04-2.33-2.35-3.07-3.93-.74-1.58-1.11-3.47-1.11-5.65 0-2.4.42-4.38 1.27-5.94.85-1.56 1.94-2.8 3.28-3.73 1.34-.93 2.87-1.62 4.59-2.09 1.72-.46 3.45-.83 5.2-1.11 1.75-.27 3.46-.49 5.16-.65 1.69-.17 3.19-.41 4.5-.74s2.35-.8 3.11-1.43c.76-.63 1.12-1.54 1.07-2.74 0-1.25-.21-2.25-.62-2.99-.41-.74-.96-1.31-1.64-1.72-.68-.41-1.47-.68-2.38-.82-.9-.14-1.87-.21-2.91-.21-2.29 0-4.1.49-5.4 1.48-1.31.98-2.07 2.62-2.29 4.91h-11.63c.17-2.71.86-4.98 2.06-6.78m22.96 16.42c-.74.25-1.53.45-2.38.61-.85.16-1.73.3-2.66.41-.93.11-1.86.25-2.78.41-.87.16-1.73.38-2.58.65-.85.27-1.58.64-2.21 1.11a5.15 5.15 0 0 0-1.51 1.76c-.38.71-.57 1.61-.57 2.7 0 1.04.19 1.91.57 2.62.38.71.9 1.27 1.56 1.68.66.41 1.42.69 2.29.86.87.16 1.77.24 2.7.24 2.29 0 4.07-.38 5.32-1.15 1.26-.76 2.18-1.68 2.79-2.74.6-1.06.97-2.14 1.1-3.23.14-1.09.21-1.96.21-2.62v-4.34c-.49.44-1.11.78-1.85 1.03zm26.78 9.16c.52.9 1.19 1.64 2.01 2.21.82.57 1.76 1 2.82 1.27 1.07.28 2.17.41 3.32.41.82 0 1.68-.09 2.58-.29.9-.19 1.72-.49 2.46-.9.74-.41 1.35-.95 1.84-1.64.49-.68.74-1.54.74-2.58 0-1.75-1.16-3.06-3.48-3.93-2.32-.87-5.55-1.75-9.7-2.62-1.69-.38-3.34-.83-4.95-1.35-1.61-.52-3.04-1.2-4.3-2.05a9.92 9.92 0 0 1-3.03-3.19c-.76-1.28-1.15-2.85-1.15-4.71 0-2.73.53-4.97 1.6-6.71 1.07-1.75 2.47-3.12 4.22-4.14 1.75-1.01 3.71-1.72 5.89-2.13 2.18-.41 4.42-.61 6.71-.61s4.52.22 6.67.65c2.16.44 4.08 1.18 5.77 2.21 1.69 1.04 3.1 2.42 4.22 4.13 1.12 1.72 1.79 3.89 2.01 6.51h-11.05c-.16-2.24-1.01-3.75-2.54-4.54s-3.33-1.19-5.4-1.19c-.66 0-1.37.04-2.13.12-.77.08-1.46.26-2.09.53-.63.27-1.16.67-1.6 1.19-.44.52-.65 1.22-.65 2.09 0 1.04.38 1.88 1.15 2.54.76.66 1.76 1.19 2.99 1.6 1.23.41 2.63.78 4.22 1.11 1.58.33 3.19.68 4.83 1.06 1.69.38 3.34.85 4.95 1.39 1.61.55 3.04 1.27 4.3 2.17 1.26.9 2.26 2.02 3.03 3.36.76 1.34 1.15 2.99 1.15 4.95 0 2.79-.56 5.12-1.68 7-1.12 1.88-2.58 3.4-4.38 4.55-1.8 1.15-3.86 1.95-6.18 2.42-2.32.46-4.68.7-7.08.7-2.46 0-4.86-.25-7.21-.74-2.35-.49-4.44-1.31-6.26-2.46a14.045 14.045 0 0 1-4.5-4.54c-1.18-1.88-1.82-4.24-1.93-7.08h11.05c-.02 1.26.24 2.33.76 3.23m39.75-31.81v5.4h.16c1.42-2.29 3.22-3.96 5.4-5s4.59-1.56 7.21-1.56c3.33 0 6.2.63 8.6 1.88 2.4 1.26 4.39 2.92 5.98 5 1.58 2.07 2.76 4.49 3.52 7.25.76 2.76 1.15 5.64 1.15 8.64 0 2.84-.38 5.57-1.15 8.19-.77 2.62-1.92 4.94-3.48 6.96-1.55 2.02-3.49 3.63-5.81 4.83-2.32 1.2-5.04 1.8-8.15 1.8-2.62 0-5.04-.53-7.25-1.6s-4.03-2.63-5.45-4.71h-.16v20.06h-11.63V14.73h11.06m15.11 33.58a9.272 9.272 0 0 0 3.11-2.99c.79-1.23 1.35-2.66 1.68-4.3s.49-3.3.49-4.99-.18-3.36-.53-5c-.36-1.64-.94-3.1-1.76-4.38a9.847 9.847 0 0 0-3.15-3.11c-1.28-.79-2.85-1.19-4.71-1.19-1.91 0-3.51.4-4.79 1.19a9.604 9.604 0 0 0-3.11 3.07c-.79 1.26-1.35 2.7-1.68 4.34-.33 1.64-.49 3.33-.49 5.08 0 1.69.18 3.36.53 4.99.35 1.64.93 3.07 1.72 4.3.79 1.23 1.84 2.22 3.15 2.99 1.31.77 2.89 1.15 4.75 1.15 1.91-.01 3.5-.39 4.79-1.15zm32.71-1.4c1.75 1.69 4.26 2.54 7.53 2.54 2.35 0 4.37-.59 6.06-1.76 1.69-1.17 2.73-2.42 3.11-3.72h10.23c-1.64 5.08-4.15 8.71-7.53 10.89-3.39 2.18-7.48 3.28-12.28 3.28-3.33 0-6.33-.53-9.01-1.6-2.68-1.06-4.94-2.58-6.8-4.54-1.86-1.97-3.29-4.31-4.3-7.04-1.01-2.73-1.52-5.73-1.52-9.01 0-3.17.52-6.11 1.56-8.84 1.04-2.73 2.51-5.09 4.42-7.08 1.91-1.99 4.19-3.56 6.84-4.71 2.65-1.15 5.58-1.72 8.8-1.72 3.6 0 6.74.7 9.42 2.09 2.67 1.39 4.87 3.26 6.59 5.61 1.72 2.35 2.96 5.02 3.73 8.02.76 3 1.04 6.14.82 9.42h-30.54c.16 3.75 1.12 6.48 2.87 8.17m13.14-22.27c-1.39-1.53-3.51-2.29-6.35-2.29-1.86 0-3.4.31-4.63.94-1.23.63-2.21 1.41-2.95 2.33-.74.93-1.26 1.91-1.55 2.95-.3 1.04-.48 1.97-.53 2.78h18.91c-.54-2.94-1.51-5.18-2.9-6.71zm26.96-9.91v7.86h.16c.54-1.31 1.28-2.52 2.21-3.64.93-1.12 1.99-2.07 3.19-2.87 1.2-.79 2.48-1.4 3.85-1.84 1.36-.44 2.79-.65 4.26-.65.76 0 1.61.14 2.54.41v10.81c-.55-.11-1.2-.2-1.97-.29-.76-.08-1.5-.12-2.21-.12-2.13 0-3.93.36-5.4 1.06-1.47.71-2.66 1.68-3.56 2.91-.9 1.23-1.54 2.66-1.92 4.3-.38 1.64-.57 3.41-.57 5.32v19.08h-11.63V14.73h11.05"/><circle fill="none" stroke="#fff" stroke-miterlimit="10" cx="56.43" cy="56.57" r="55.43"/><circle fill="none" stroke="#fff" stroke-miterlimit="10" cx="56.43" cy="56.57" r="50.62"/><path fill="#fff" d="M71.68 21.28c-.75 0-1.35.52-1.5 1.3l-5.72 30.27c-.15.81.26 1.87.83 2.14l27.77 13.34c.38.18.74.28 1.08.28.76 0 1.34-.49 1.49-1.25l2.02-10.79c.17-.9-.35-1.91-1.17-2.3l-16.01-7.69c-.18-.09-.33-.38-.29-.58l3.3-17.46c.17-.9-.34-1.91-1.16-2.31l-9.89-4.77c-.26-.12-.5-.18-.75-.18m-16.15-4.59c-.77 0-1.53.43-1.89 1.08l-8.69 15.49c-.08.15-.31.27-.51.27-.03 0-.06 0-.09-.01l-17.21-4.4c-.15-.04-.32-.06-.48-.06-.77 0-1.53.43-1.89 1.07l-5.39 9.57c-.24.43-.28.91-.1 1.33.15.35.52.83 1.44 1.06l29.85 7.63c.08.02.16.03.24.03.55 0 1.39-.46 1.77-1.14l15.08-26.86c.25-.45.29-.96.1-1.4-.19-.44-.58-.77-1.08-.89l-10.65-2.7c-.18-.05-.34-.07-.5-.07m6.27 46.7c-.55 0-1.39.46-1.77 1.14L44.95 91.4c-.25.45-.29.96-.1 1.4.19.44.58.77 1.08.89l10.65 2.7c.15.04.31.06.48.06.77 0 1.53-.43 1.89-1.08l8.7-15.49c.08-.15.31-.27.51-.27.03 0 .06 0 .09.01l17.21 4.4c.15.04.32.06.48.06.77 0 1.53-.43 1.89-1.08l5.39-9.57c.24-.43.28-.91.1-1.33-.15-.35-.52-.83-1.44-1.06l-29.85-7.63c-.06-.01-.15-.02-.23-.02M18.73 44.55c-.76 0-1.35.49-1.49 1.25l-2.02 10.79c-.17.9.34 1.91 1.17 2.3l16.01 7.69c.18.09.33.38.29.58l-3.3 17.46c-.17.9.34 1.91 1.16 2.31l9.89 4.77c.24.11.48.17.73.17.75 0 1.35-.52 1.5-1.3l5.72-30.27c.15-.81-.26-1.87-.83-2.14L19.8 44.83c-.38-.18-.74-.28-1.07-.28"/></svg>