<svg width="127" xmlns="http://www.w3.org/2000/svg" viewBox="0 0 127 127"><circle fill="#E8583F" cx="63.5" cy="63.5" r="62.5"/><path fill="#FFF" d="M95.7 84.6c-.2.4 0 1.3.5 2l.3.3c.5.7.5 1.7-.1 2.3-.6.6-1.6.7-2.3.2l-.3-.3c-.7-.5-1.6-.7-2-.5-.4.2-1.6 1.3-1.8 2.1l-.1.4c-.1.8-.9 1.5-1.7 1.5-.8 0-1.6-.7-1.7-1.5l-.1-.4c-.1-.8-.6-1.6-1-1.7l-.4-.2-.4-.2c-.4-.2-.7-.4-.7-.4s-.6.4-1.2.9l-.3.3c-.7.5-1.7.5-2.3-.1-.6-.6-.7-1.6-.2-2.3l.3-.4c.5-.7.7-1.6.5-2-.2-.4-1.3-1.7-2.1-1.8h-.4c-.8-.1-1.5-.9-1.5-1.7 0-.8.7-1.6 1.5-1.7l.4-.1c.8-.1 1.6-.6 1.7-1l.2-.4.2-.4.4-.8s-.4-.5-.9-1.2l-.2-.3c-.5-.7-.5-1.7.1-2.3.6-.6 1.6-.6 2.3-.1l.3.2c.7.5 1.6.8 2 .5.4-.2 1.7-1.3 1.8-2.1l.1-.4c.1-.8.9-1.5 1.7-1.5.8 0 1.6.7 1.7 1.5l.1.4c.1.8.6 1.6 1 1.7l.4.2.4.2c.4.2 1.3 0 2-.5l.3-.3c.7-.5 1.7-.5 2.3.1.6.6.7 1.6.1 2.3l-.2.3c-.5.7-.8 1.6-.5 2 .2.4 1.3 1.7 2.1 1.8l.4.1c.8.1 1.5.9 1.5 1.7 0 .8-.7 1.6-1.5 1.7l-.4.1c-.8.1-1.6.6-1.7 1l-.2.4-.4.4z"/><g fill="#333"><path d="M98.3 78.4l-.4-.1c-.3 0-1.2-.9-1.3-1.2 0-.1.1-.6.4-1l.3-.3c.8-1.1.7-2.7-.2-3.6-.9-.9-2.5-1-3.6-.2l-.3.3c-.4.3-.8.4-1 .4l-.8-.3c-.1-.1-.3-.5-.4-1l-.1-.4c-.2-1.3-1.4-2.4-2.7-2.4-1.3 0-2.5 1.1-2.7 2.4l-.1.4c0 .3-.9 1.2-1.2 1.3-.1 0-.6-.1-1-.4l-.3-.3c-1.1-.8-2.7-.7-3.6.2-.9.9-1 2.5-.2 3.6l.8 1c0 .1-.1.1-.1.2 0 0 0 .1-.1.1l-.3.9c-.1.1-.5.3-1 .4H78c-1.3.2-2.4 1.4-2.4 2.7 0 1.3 1.1 2.5 2.4 2.7h.4c.3 0 1.1.8 1.3 1.2 0 .2-.1.6-.4 1l-.3.4c-.8 1.1-.7 2.7.3 3.6.9.9 2.5 1 3.6.2l1-.8.2.1s.1 0 .1.1l.8.3c.1.1.3.5.4 1l.1.4c.2 1.3 1.4 2.4 2.7 2.4 1.3 0 2.5-1.1 2.7-2.4l.1-.4c0-.3.8-1.1 1.2-1.3.2 0 .6.1 1 .4l.3.2c1.1.8 2.7.7 3.6-.3.9-.9 1-2.5.2-3.6L97 86c-.3-.4-.4-.8-.4-1l.3-.8c.1-.1.5-.3 1-.4l.4-.1c1.3-.2 2.4-1.4 2.4-2.7 0-1.3-1.1-2.5-2.4-2.6zm-.3 3.4l-.4.1c-1 .2-2.2.7-2.5 1.6l-.3.7c-.4.9 0 2.2.6 3l.3.3c.2.3.2.8 0 1-.2.2-.7.3-1 0l-.3-.2c-.8-.6-2.1-1.1-3-.6-.4.2-2.1 1.5-2.3 2.9l-.2.4c0 .3-.4.7-.7.7-.4 0-.7-.3-.7-.7l-.1-.4c-.2-1.1-.7-2.2-1.6-2.5l-1.3-.6c-.1 0-.2-.1-.3-.1-.3-.1-.6 0-.8.2l-1.6 1.2c-.3.2-.8.2-1 0s-.3-.7-.1-1l.3-.4c.6-.8 1.1-2.1.6-3-.2-.5-1.5-2.1-2.9-2.3h-.4c-.3 0-.7-.4-.7-.7 0-.3.3-.7.7-.7l.4-.1c1-.2 2.2-.7 2.5-1.6l.3-.7c.5-.9.5-.9.5-1.2 0-.2-.1-.4-.2-.6L80.6 75c-.2-.3-.2-.7 0-1s.7-.3 1 0l.3.2c.8.6 2.1 1.1 3 .6.5-.2 2.1-1.5 2.3-2.9l.1-.4c0-.3.4-.6.7-.7.3 0 .7.3.7.7l.1.4c.1 1 .7 2.2 1.6 2.5l.7.3c.9.4 2.2 0 3-.6l.3-.3c.3-.2.7-.2 1 0 .2.2.3.7 0 1l-.3.3c-.6.8-1.1 2.1-.6 3 .2.5 1.5 2.1 2.9 2.3l.4.1c.3 0 .7.4.7.7.2.2-.1.6-.5.6z"/><path d="M88.2 77.8c-1.8 0-3.3 1.5-3.3 3.3 0 1.8 1.5 3.3 3.3 3.3 1.8 0 3.3-1.5 3.3-3.3 0-1.8-1.5-3.3-3.3-3.3zm0 4.6c-.7 0-1.3-.6-1.3-1.3 0-.7.6-1.3 1.3-1.3.7 0 1.3.6 1.3 1.3 0 .7-.6 1.3-1.3 1.3zM58 35.4c8.6 0 16.3 5.5 19.1 13.7.2.4.6.7 1.1.7.4 0 .7-.1 1.1-.1 8.9 0 16.6 6.7 17.7 15.7.1.5.6.9 1.1.9.5-.1.9-.6.9-1.1-1.3-9.9-9.8-17.4-19.7-17.4h-.5C75.4 39.1 67.2 33.4 58 33.4c-12.3 0-22.2 10.1-22.2 22.5 0 .8.1 1.6.2 2.5-5.8 2.3-9.6 7.9-9.6 14.2 0 8.4 6.8 15.3 15.2 15.3H69c.6 0 1-.4 1-1s-.4-1-1-1H41.5c-7.3 0-13.2-6-13.2-13.3 0-5.8 3.6-10.8 9-12.6.5-.2.7-.6.7-1.1-.2-1-.2-2-.2-3 0-11.4 9-20.5 20.2-20.5z"/></g></svg>