<svg xmlns="http://www.w3.org/2000/svg" preserveAspectRatio="xMidYMid" width="24" height="19.94" viewBox="0 0 24 19.94"><defs><style>.cls-1{fill:#000;fill-rule:evenodd}</style></defs><path d="M22 17.934a2 2 0 0 1-2-1.995c0-.736.405-1.373 1-1.719V8.676l-2.122 1.21a.965.965 0 0 1 .122.452v6.986a.999.999 0 0 1-1 .998c-.089 0-.169-.028-.251-.05A12.724 12.724 0 0 1 11.5 19.93a12.731 12.731 0 0 1-6.249-1.658c-.082.022-.162.05-.251.05-.553 0-1-.447-1-.998v-6.986c0-.165.05-.315.122-.452L.504 7.823a.997.997 0 0 1 0-1.733l10.5-5.988c.307-.175.685-.175.992 0l10.5 5.988a.995.995 0 0 1 .504.866c0 .06-.035.109-.045.166.017.074.045.143.045.222v6.876c.595.346 1 .983 1 1.719a2 2 0 0 1-2 1.995zm-5-1.532v-5.445l-5.004 2.854a1.005 1.005 0 0 1-.992 0L6 10.957v5.441c.81.493 2.833 1.536 5.5 1.536 2.688 0 4.695-1.038 5.5-1.532zM11.5 2.118L3.016 6.956l8.484 4.839 8.484-4.839L11.5 2.118z" class="cls-1"/></svg>