<svg xmlns="http://www.w3.org/2000/svg" preserveAspectRatio="xMidYMid" width="24" height="16.97" viewBox="0 0 24 16.97"><defs><style>.cls-1{fill:#000;fill-rule:evenodd}</style></defs><path d="M23.472 16.838a1.005 1.005 0 0 1-1.027-.049L18 13.834v1.128c0 1.1-.897 1.994-2 1.994H2c-1.103 0-2-.894-2-1.994V2A2 2 0 0 1 2 .006h14A2 2 0 0 1 18 2v1.129L22.445.174A1.002 1.002 0 0 1 24 1.003v14.956a.997.997 0 0 1-.528.879zM22 2.867l-4.445 2.954c-.026.017-.056.019-.083.034a.933.933 0 0 1-.19.077.97.97 0 0 1-.19.038c-.032.003-.06.019-.092.019-.034 0-.063-.016-.097-.02a.905.905 0 0 1-.193-.039.951.951 0 0 1-.475-.319c-.02-.025-.049-.039-.067-.066-.017-.026-.02-.057-.034-.084a.91.91 0 0 1-.076-.185.966.966 0 0 1-.04-.195C16.015 5.05 16 5.023 16 4.992V2H2v13h14v-3.029c0-.031.015-.058.018-.089a.938.938 0 0 1 .04-.195.944.944 0 0 1 .076-.186c.014-.027.017-.057.034-.083.018-.027.047-.042.068-.067a.967.967 0 0 1 .469-.318.936.936 0 0 1 .203-.04c.032-.004.059-.019.092-.019.031 0 .057.015.087.018a.964.964 0 0 1 .384.116c.027.014.058.016.084.034L22 14.096V2.867z" class="cls-1"/></svg>