<svg xmlns="http://www.w3.org/2000/svg" preserveAspectRatio="xMidYMid" width="24" height="25.91" viewBox="0 0 24 25.91"><defs><style>.cls-1{fill:#000;fill-rule:evenodd}</style></defs><path d="M16.455 25.913h-3.413c-1.756 0-3.187-.632-4.449-1.188-.978-.432-1.823-.805-2.614-.805H2.101a1 1 0 0 1-.783-.375C1.184 23.376 0 21.785 0 17.943c0-3.761 1.029-6.257 1.073-6.361.14-.332.449-.564.809-.606.039-.004 3.931-.474 5.815-2.359 1.801-1.801 2.993-4.321 3.359-7.095C11.164.7 11.793.08 12.585.015c1.348-.11 3.142.869 3.353 3.955.122 1.775-.262 3.746-.579 5.008h3.565c2.566 0 4.1 1.624 4.1 3.195 0 .549-.081.997-.214 1.359.691.489 1.19 1.289 1.19 2.419 0 1.201-.539 1.987-1.223 2.453.132.347.212.767.206 1.274-.013 1.113-.546 1.837-1.188 2.282.095.265.151.573.151.933 0 3.02-4.133 3.02-5.491 3.02zM2.684 21.928h3.295c1.214 0 2.337.495 3.423.975 1.134.5 2.307 1.017 3.64 1.017h3.413c1.593 0 3.491-.177 3.491-1.027 0-.15-.027-.32-.103-.346-.576.01-.871-.398-.899-.932-.028-.534.484-.983 1.019-1.032.229-.027 1.012-.174 1.02-.929.006-.522-.142-.698-.2-.722-.515-.076-.847-.526-.811-1.045.035-.518.505-.914 1.026-.92.451-.016 1.002-.206 1.002-1.016 0-.806-.573-.998-1.054-1.017a1.006 1.006 0 0 1-.969-1.021.99.99 0 0 1 .912-.968c.042-.067.135-.274.135-.772 0-.406-.634-1.203-2.1-1.203h-4.886c-.321 0-.622-.154-.81-.413a.994.994 0 0 1-.139-.897c.01-.03 1.021-3.111.853-5.553-.09-1.332-.526-1.928-.939-2.072-.46 3.105-1.835 5.934-3.888 7.988-1.878 1.878-5.032 2.604-6.375 2.838-.267.844-.74 2.678-.74 5.082 0 2.147.419 3.405.684 3.985z" class="cls-1"/></svg>