<svg width="127" xmlns="http://www.w3.org/2000/svg" viewBox="0 0 127 127"><circle cx="63.5" cy="63.5" r="62.5" fill="#38B998"/><path fill="#FFF" d="M86.1 72.9c-1.7-.7-3.5.3-3.5.3s-.6-2.2-2.8-2.8c-2-.6-3.7 1-3.7 1-.4-1-.8-2-2.7-2.4-2.4-.6-3.7.6-3.7.6v-.2l-.1-16c0-2.4-1.3-4.1-3.7-4.1-2.4 0-3.7 1.8-3.7 4.1v24.8l-1.3-1.5L58 74c-2-2.1-6.9-2.8-9.3-.9 0 0 4.3 5 7.5 10.2 3.1 5.2 5.7 8.1 5.7 8.1l.3.4s4.2 2.1 10.9 2.1S84 91.8 84 91.8s3.8-14.4 4-15.8c.2-1.3-.4-2.5-1.9-3.1z"/><g fill="#333"><path d="M50.8 86h-7.4C42 86 41 84.9 41 83.5V37.7c0-1.4 1-2.7 2.4-2.7h29.2c1.4 0 2.3 1.4 2.3 2.7v26c0 .8.7 1.5 1.5 1.5s1.5-.7 1.5-1.5v-26c0-3-2.3-5.7-5.3-5.7H43.4c-3 0-5.4 2.7-5.4 5.7v45.8c0 3 2.4 5.5 5.4 5.5h7.4c.8 0 1.5-.7 1.5-1.5s-.7-1.5-1.5-1.5z"/><path d="M54.9 37c-.8 0-1.5.7-1.5 1.5s.7 1.5 1.5 1.5h6.2c.8 0 1.5-.7 1.5-1.5S62 37 61.1 37h-6.2zm31.8 34.5c-1.2-.5-2.5-.4-3.4-.2-.6-.9-1.6-1.9-3.2-2.3-1.3-.4-2.6-.1-3.6.3-.5-.7-1.4-1.4-2.9-1.8-1-.2-1.9-.3-2.6-.1l-.1-14.1c0-3.4-1.9-5.6-5-5.6s-5 2.3-5 5.6v21.2l-1.7-1.6c-2.4-2.5-8.3-3.5-11.4-1h-.1l-.1.1-.1.1-.1.1-.1.1s0 .1-.1.1c0 0 0 .1-.1.1v1c0 .1 0 .1.1.2 0 0 0 .1.1.1l.1.1s4.3 4.9 7.3 9.9c3.2 5.2 5.7 8.2 5.8 8.3l.3.3c.1.2.3.3.5.4.2.1 4.6 2.2 11.5 2.2 7 0 11.3-2.1 11.5-2.2.1 0 .1-.1.2-.1l.3-.3v-.1c.1-.1.1-.3.2-.4.4-1.5 3.9-14.4 4.1-15.8.7-1.8-.3-3.7-2.4-4.6zm-.2 4.3c-.2.9-2.3 9.1-3.9 14.8-1.3.5-4.8 1.7-9.6 1.7-5.3 0-9-1.4-9.9-1.8l-.1-.2s-2.5-2.9-5.5-7.9c-2.2-3.6-4.8-6.9-6.3-8.8 2-.4 4.6.3 5.8 1.4l4.2 4.2c.4.4 1.2.6 1.8.3.6-.2 1.1-.8 1.1-1.4V53.4c0-1.2.2-2.6 2-2.6s2 1.4 2 2.6l.1 16v.4c.1.5.4 1 .9 1.2.5.2 1.1.1 1.5-.2 0 0 .8-.6 2.4-.3 1.2.3 1.3.7 1.7 1.5.2.5.6.8 1 .9.5.1 1 0 1.4-.3 0 0 1.2-1 2.3-.7 1.4.4 1.8 1.7 1.8 1.7.1.5.4.8.9 1 .4.2.9.1 1.3-.1 0 0 1.2-.7 2.2-.3 1.1.6 1 1.3.9 1.6z"/></g></svg>