<svg xmlns="http://www.w3.org/2000/svg" preserveAspectRatio="xMidYMid" width="36" height="25.5" viewBox="0 0 24 17"><defs><style>.cls-1{fill:#000;fill-rule:evenodd}</style></defs><path d="M18.625 17H5c-2.991 0-5-1.754-5-4.363a5.346 5.346 0 0 1 2.941-4.775 6.663 6.663 0 0 1-.007-.316C2.934 3.385 6.343 0 10.533 0a7.613 7.613 0 0 1 6.89 4.369C21.076 4.52 24 7.519 24 11.182 24 14.499 21.689 17 18.625 17zM10.533 2C7.446 2 4.934 4.488 4.934 7.546c0 .255.022.513.067.792a1 1 0 0 1-.676 1.11A3.358 3.358 0 0 0 2 12.637C2 14.829 4.296 15 5 15h13.625C20.302 15 22 13.688 22 11.182c0-2.658-2.184-4.819-4.867-4.819-.088 0-.176.006-.263.016a1 1 0 0 1-1.053-.661A5.604 5.604 0 0 0 10.533 2z" class="cls-1"/></svg>