<svg width="127" xmlns="http://www.w3.org/2000/svg" viewBox="0 0 127 127"><circle cx="63.5" cy="63.5" r="62.5" fill="#788EB2"/><path fill="#FFF" d="M88.3 89.6c0 1.4-1.2 2.6-2.6 2.6H41.3c-1.4 0-2.6-1.2-2.6-2.6V55.7c0-1.4 1.2-2.6 2.6-2.6h44.3c1.4 0 2.6 1.2 2.6 2.6v33.9z"/><g fill="#333"><path d="M85.7 52.1h-7v-5.5c0-8.5-7-15.3-15.5-15.3s-15.5 6.9-15.5 15.3v5.5h-6.4c-2 0-3.6 1.6-3.6 3.6v33.9c0 2 1.6 3.6 3.6 3.6h44.3c2 0 3.6-1.6 3.6-3.6V55.7c.1-2-1.5-3.6-3.5-3.6zm-36-5.6c0-7.4 6.1-13.3 13.5-13.3s13.5 6 13.5 13.3V52h-27v-5.5zm37.6 43.1c0 .9-.7 1.6-1.6 1.6H41.3c-.9 0-1.6-.7-1.6-1.6V55.7c0-.9.7-1.6 1.6-1.6h44.3c.9 0 1.6.7 1.6 1.6v33.9z"/><path d="M63.5 65.1c-2 0-3.6 1.6-3.6 3.6 0 1.7 1.2 3.2 2.8 3.5v6.9c0 .6.4 1 1 1s1-.4 1-1V72c1.4-.5 2.4-1.8 2.4-3.4 0-1.9-1.6-3.5-3.6-3.5zm0 5.2c-.9 0-1.6-.7-1.6-1.6 0-.9.7-1.6 1.6-1.6.9 0 1.6.7 1.6 1.6 0 .9-.7 1.6-1.6 1.6z"/></g></svg>